<?xml version="1.0" encoding="UTF-8" standalone="no"?>
<svg width="30" height="30" viewBox="0 0 30 30" fill="none" xmlns="http://www.w3.org/2000/svg">
<path d="M18.586 8.61058C18.7705 8.41956 18.9912 8.26719 19.2352 8.16237C19.4792 8.05756 19.7416 8.00238 20.0072 8.00008C20.2728 7.99777 20.5361 8.04837 20.7819 8.14893C21.0277 8.24949 21.251 8.398 21.4388 8.58579C21.6266 8.77357 21.7751 8.99688 21.8756 9.24267C21.9762 9.48846 22.0268 9.75182 22.0245 10.0174C22.0222 10.2829 21.967 10.5454 21.8622 10.7894C21.7574 11.0334 21.605 11.2541 21.414 11.4386L20.621 12.2316L17.793 9.40358L18.586 8.61058V8.61058ZM16.379 10.8176L8 19.1966V22.0246H10.828L19.208 13.6456L16.378 10.8176H16.379Z" fill="#2C60F6"/>
</svg>
