<?xml version="1.0" encoding="UTF-8" standalone="no"?>
<svg width="30" height="30" viewBox="0 0 30 30" fill="none" xmlns="http://www.w3.org/2000/svg">
<rect width="30" height="30" fill="#45A7F8"/>
<path fill-rule="evenodd" clip-rule="evenodd" d="M12.506 7.74112C12.4373 7.48492 12.2697 7.2665 12.0399 7.13392C11.8102 7.00133 11.5372 6.96543 11.281 7.03412C11.0248 7.10281 10.8064 7.27046 10.6738 7.5002C10.5412 7.72993 10.5053 8.00292 10.574 8.25912L10.833 9.22512C10.9017 9.48132 11.0693 9.69974 11.2991 9.83233C11.5288 9.96492 11.8018 10.0008 12.058 9.93212C12.3142 9.86343 12.5326 9.69578 12.6652 9.46605C12.7978 9.23631 12.8337 8.96332 12.765 8.70712L12.505 7.74112H12.506ZM8.26301 10.5701C8.13593 10.5355 8.00326 10.5263 7.87262 10.5431C7.74198 10.5598 7.61594 10.6023 7.50174 10.6679C7.38754 10.7335 7.28743 10.8211 7.20716 10.9255C7.12689 11.0299 7.06804 11.1492 7.03399 11.2764C6.99994 11.4036 6.99136 11.5364 7.00875 11.6669C7.02614 11.7975 7.06915 11.9233 7.13531 12.0372C7.20147 12.1511 7.28948 12.2508 7.39428 12.3306C7.49908 12.4104 7.61861 12.4687 7.74601 12.5021L8.71201 12.7611C8.96774 12.8283 9.23967 12.7914 9.4683 12.6586C9.69693 12.5258 9.86366 12.3078 9.93201 12.0524C10.0004 11.797 9.96477 11.5249 9.83303 11.2957C9.70128 11.0664 9.4841 10.8987 9.22901 10.8291L8.26301 10.5691V10.5701ZM17.077 10.0011C17.1698 9.90821 17.2435 9.79792 17.2937 9.67656C17.3439 9.55519 17.3698 9.42512 17.3697 9.29377C17.3697 9.16242 17.3437 9.03237 17.2934 8.91103C17.2431 8.7897 17.1694 8.67947 17.0765 8.58662C16.9836 8.49378 16.8733 8.42014 16.7519 8.36992C16.6306 8.3197 16.5005 8.29387 16.3692 8.29392C16.2378 8.29397 16.1078 8.31988 15.9864 8.37019C15.8651 8.4205 15.7548 8.49421 15.662 8.58712L14.955 9.29412C14.8621 9.38703 14.7884 9.49733 14.7381 9.61872C14.6878 9.74012 14.6619 9.87023 14.6619 10.0016C14.6619 10.133 14.6878 10.2631 14.7381 10.3845C14.7884 10.5059 14.8621 10.6162 14.955 10.7091C15.0479 10.802 15.1582 10.8757 15.2796 10.926C15.401 10.9763 15.5311 11.0022 15.6625 11.0022C15.7939 11.0022 15.924 10.9763 16.0454 10.926C16.1668 10.8757 16.2771 10.802 16.37 10.7091L17.077 10.0011V10.0011ZM10.006 17.0731L10.713 16.3661C10.9008 16.1786 11.0064 15.9242 11.0066 15.6588C11.0067 15.3935 10.9015 15.1389 10.714 14.9511C10.5265 14.7633 10.2721 14.6578 10.0067 14.6576C9.74135 14.6574 9.48678 14.7626 9.29901 14.9501L8.59101 15.6571C8.40336 15.8448 8.29795 16.0993 8.29795 16.3646C8.29795 16.63 8.40336 16.8845 8.59101 17.0721C8.77865 17.2598 9.03314 17.3652 9.29851 17.3652C9.56387 17.3652 9.81836 17.2598 10.006 17.0721V17.0731ZM13.206 11.9021C13.0243 11.8294 12.8252 11.8116 12.6334 11.8509C12.4417 11.8902 12.2657 11.985 12.1273 12.1234C11.9889 12.2618 11.8941 12.4378 11.8548 12.6296C11.8155 12.8213 11.8333 13.0204 11.906 13.2021L15.906 23.2021C15.9777 23.3811 16.0996 23.5355 16.257 23.6469C16.4144 23.7582 16.6006 23.8216 16.7932 23.8295C16.9859 23.8375 17.1767 23.7895 17.3427 23.6915C17.5087 23.5935 17.6429 23.4496 17.729 23.2771L19.109 20.5181L22.127 23.5381C22.3146 23.7256 22.5691 23.8309 22.8344 23.8308C23.0996 23.8307 23.354 23.7253 23.5415 23.5376C23.729 23.35 23.8343 23.0955 23.8342 22.8303C23.8341 22.565 23.7286 22.3106 23.541 22.1231L20.522 19.1031L23.282 17.7241C23.4542 17.6378 23.5977 17.5036 23.6954 17.3376C23.7932 17.1716 23.8409 16.981 23.8328 16.7886C23.8248 16.5961 23.7614 16.4101 23.6502 16.2529C23.539 16.0956 23.3848 15.9738 23.206 15.9021L13.206 11.9021V11.9021Z" fill="white"/>
</svg>
