<?xml version="1.0" encoding="UTF-8" standalone="no"?>
<svg width="30" height="30" viewBox="0 0 30 30" fill="none" xmlns="http://www.w3.org/2000/svg">
<rect width="30" height="30" fill="#45A7F8"/>
<path fill-rule="evenodd" clip-rule="evenodd" d="M7.166 10.055C10.0611 10.019 12.8448 8.93346 15 7C17.155 8.93382 19.9387 10.0197 22.834 10.056C22.944 10.706 23 11.376 23 12.057C23 17.282 19.66 21.727 15 23.374C10.34 21.726 7 17.281 7 12.056C7 11.374 7.057 10.706 7.166 10.055V10.055ZM18.707 13.763C18.8892 13.5744 18.99 13.3218 18.9877 13.0596C18.9854 12.7974 18.8802 12.5466 18.6948 12.3612C18.5094 12.1758 18.2586 12.0706 17.9964 12.0683C17.7342 12.066 17.4816 12.1668 17.293 12.349L14 15.642L12.707 14.349C12.5184 14.1668 12.2658 14.066 12.0036 14.0683C11.7414 14.0706 11.4906 14.1758 11.3052 14.3612C11.1198 14.5466 11.0146 14.7974 11.0123 15.0596C11.01 15.3218 11.1108 15.5744 11.293 15.763L13.293 17.763C13.4805 17.9505 13.7348 18.0558 14 18.0558C14.2652 18.0558 14.5195 17.9505 14.707 17.763L18.707 13.763V13.763Z" fill="white"/>
</svg>
