<?xml version="1.0" encoding="UTF-8" standalone="no"?>
<svg width="30" height="30" viewBox="0 0 30 30" fill="none" xmlns="http://www.w3.org/2000/svg">
<rect width="30" height="30" fill="#45A7F8"/>
<path fill-rule="evenodd" clip-rule="evenodd" d="M15.1213 15.1213C14.5587 15.6839 13.7956 16 13 16C12.2044 16 11.4413 15.6839 10.8787 15.1213C10.3161 14.5587 10 13.7956 10 13C10 12.2044 10.3161 11.4413 10.8787 10.8787C11.4413 10.3161 12.2044 10 13 10C13.7956 10 14.5587 10.3161 15.1213 10.8787C15.6839 11.4413 16 12.2044 16 13C16 13.7956 15.6839 14.5587 15.1213 15.1213ZM17.2426 19.7574C16.1174 18.6321 14.5913 18 13 18C11.4087 18 9.88258 18.6321 8.75736 19.7574C7.63214 20.8826 7 22.4087 7 24H19C19 22.4087 18.3679 20.8826 17.2426 19.7574Z" fill="white"/>
<path fill-rule="evenodd" clip-rule="evenodd" d="M18.3649 7.44548C18.5986 7.17192 18.9155 7.01824 19.246 7.01824C19.5764 7.01824 19.8934 7.17192 20.1271 7.44548L20.4922 7.87266L20.8574 7.44548C20.9723 7.30611 21.1098 7.19494 21.2619 7.11847C21.4139 7.04199 21.5775 7.00174 21.7429 7.00006C21.9084 6.99837 22.0725 7.03529 22.2257 7.10866C22.3788 7.18203 22.518 7.29038 22.635 7.42739C22.752 7.5644 22.8445 7.72732 22.9072 7.90665C22.9699 8.08598 23.0014 8.27813 23 8.47188C22.9985 8.66563 22.9641 8.85711 22.8988 9.03513C22.8335 9.21316 22.7386 9.37418 22.6195 9.50878L20.4922 12L18.3649 9.50878C18.1312 9.23514 18 8.86406 18 8.47713C18 8.0902 18.1312 7.71912 18.3649 7.44548V7.44548Z" fill="white"/>
</svg>
