<?xml version="1.0" encoding="UTF-8" standalone="no"?>
<svg width="30" height="30" viewBox="0 0 30 30" fill="none" xmlns="http://www.w3.org/2000/svg">
<path fill-rule="evenodd" clip-rule="evenodd" d="M16.9877 12C16.7225 12 16.4681 11.8946 16.2806 11.7071C16.0931 11.5196 15.9877 11.2652 15.9877 11C15.9877 10.7348 16.0931 10.4804 16.2806 10.2929C16.4681 10.1054 16.7225 10 16.9877 10H21.9877C22.2529 10 22.5073 10.1054 22.6948 10.2929C22.8824 10.4804 22.9877 10.7348 22.9877 11V16C22.9877 16.2652 22.8824 16.5196 22.6948 16.7071C22.5073 16.8946 22.2529 17 21.9877 17C21.7225 17 21.4681 16.8946 21.2806 16.7071C21.0931 16.5196 20.9877 16.2652 20.9877 16V13.414L16.6947 17.707C16.5072 17.8945 16.2529 17.9998 15.9877 17.9998C15.7225 17.9998 15.4682 17.8945 15.2807 17.707L12.9877 15.414L8.69471 19.707C8.50611 19.8892 8.25351 19.99 7.99131 19.9877C7.72911 19.9854 7.4783 19.8802 7.29289 19.6948C7.10749 19.5094 7.00232 19.2586 7.00004 18.9964C6.99776 18.7342 7.09855 18.4816 7.28071 18.293L12.2807 13.293C12.4682 13.1055 12.7225 13.0002 12.9877 13.0002C13.2529 13.0002 13.5072 13.1055 13.6947 13.293L15.9877 15.586L19.5737 12H16.9877Z" fill="#2C60F6"/>
</svg>
