<?xml version="1.0" encoding="UTF-8" standalone="no"?>
<svg width="30" height="30" viewBox="0 0 30 30" fill="none" xmlns="http://www.w3.org/2000/svg">
<path d="M7 8C7 7.73478 7.10536 7.48043 7.29289 7.29289C7.48043 7.10536 7.73478 7 8 7H10.153C10.3897 7.00011 10.6187 7.08418 10.7992 7.23726C10.9798 7.39034 11.1002 7.6025 11.139 7.836L11.879 12.271C11.9144 12.4822 11.881 12.6992 11.7838 12.89C11.6866 13.0809 11.5306 13.2354 11.339 13.331L9.791 14.104C10.3461 15.4797 11.1728 16.7293 12.2218 17.7782C13.2707 18.8272 14.5203 19.6539 15.896 20.209L16.67 18.661C16.7655 18.4695 16.9199 18.3138 17.1106 18.2166C17.3012 18.1194 17.5179 18.0859 17.729 18.121L22.164 18.861C22.3975 18.8998 22.6097 19.0202 22.7627 19.2008C22.9158 19.3813 22.9999 19.6103 23 19.847V22C23 22.2652 22.8946 22.5196 22.7071 22.7071C22.5196 22.8946 22.2652 23 22 23H20C12.82 23 7 17.18 7 10V8Z" fill="#2C60F6"/>
</svg>
